<svg width="78" height="78" viewBox="0 0 78 78" fill="none" xmlns="http://www.w3.org/2000/svg">
<path fill-rule="evenodd" clip-rule="evenodd" d="M38.9625 77.3977C49.1468 77.3977 58.914 73.352 66.1154 66.1506C73.3168 58.9492 77.3625 49.182 77.3625 38.9977C77.3625 28.8133 73.3168 19.0462 66.1154 11.8448C58.914 4.64336 49.1468 0.597656 38.9625 0.597656C28.7782 0.597656 19.011 4.64336 11.8096 11.8448C4.6082 19.0462 0.5625 28.8133 0.5625 38.9977C0.5625 49.182 4.6082 58.9492 11.8096 66.1506C19.011 73.352 28.7782 77.3977 38.9625 77.3977ZM56.7561 32.7913C57.6305 31.886 58.1143 30.6735 58.1033 29.4149C58.0924 28.1564 57.5876 26.9525 56.6976 26.0625C55.8077 25.1726 54.6038 24.6678 53.3452 24.6568C52.0867 24.6459 50.8742 25.1297 49.9689 26.0041L34.1625 41.8105L27.9561 35.6041C27.0508 34.7297 25.8383 34.2459 24.5798 34.2568C23.3212 34.2678 22.1173 34.7726 21.2274 35.6625C20.3374 36.5525 19.8326 37.7564 19.8217 39.0149C19.8107 40.2735 20.2945 41.486 21.1689 42.3913L30.7689 51.9913C31.669 52.8911 32.8897 53.3966 34.1625 53.3966C35.4353 53.3966 36.656 52.8911 37.5561 51.9913L56.7561 32.7913Z" fill="#28B446"/>
</svg>
