<svg width="6" height="9" viewBox="0 0 6 9" fill="none" xmlns="http://www.w3.org/2000/svg">
<path fill-rule="evenodd" clip-rule="evenodd" d="M0.11017 0.0946278C0.145004 0.0646321 0.186386 0.0408339 0.231945 0.0245961C0.277504 0.00835829 0.326345 0 0.37567 0C0.424996 0 0.473837 0.00835829 0.519396 0.0245961C0.564954 0.0408339 0.606336 0.0646321 0.64117 0.0946278L5.14117 3.95978C5.17609 3.9897 5.2038 4.02524 5.2227 4.06437C5.24161 4.1035 5.25134 4.14545 5.25134 4.18782C5.25134 4.23019 5.24161 4.27214 5.2227 4.31127C5.2038 4.3504 5.17609 4.38594 5.14117 4.41586L0.64117 8.28101C0.570755 8.34149 0.475252 8.37547 0.37567 8.37547C0.276088 8.37547 0.180585 8.34149 0.11017 8.28101C0.0397552 8.22053 0.000196338 8.1385 0.000196338 8.05297C0.000196338 7.96744 0.0397552 7.88541 0.11017 7.82493L4.34542 4.18782L0.11017 0.550715C0.0752477 0.520795 0.0475405 0.485252 0.0286356 0.44612C0.00973079 0.406989 0 0.365038 0 0.322672C0 0.280305 0.00973079 0.238354 0.0286356 0.199223C0.0475405 0.160091 0.0752477 0.124548 0.11017 0.0946278Z" fill="black"/>
</svg>
