<svg width="43" height="28" viewBox="0 0 43 28" fill="none" xmlns="http://www.w3.org/2000/svg">
<path fill-rule="evenodd" clip-rule="evenodd" d="M0 13.9999C0 13.6021 0.158035 13.2206 0.43934 12.9393C0.720644 12.658 1.10218 12.4999 1.5 12.4999H36.879L27.438 3.06194C27.1563 2.78028 26.9981 2.39827 26.9981 1.99994C26.9981 1.60161 27.1563 1.2196 27.438 0.937941C27.7197 0.656281 28.1017 0.498047 28.5 0.498047C28.8983 0.498047 29.2803 0.656281 29.562 0.937941L41.562 12.9379C41.7017 13.0773 41.8125 13.2428 41.8881 13.425C41.9638 13.6073 42.0027 13.8026 42.0027 13.9999C42.0027 14.1972 41.9638 14.3926 41.8881 14.5748C41.8125 14.7571 41.7017 14.9226 41.562 15.0619L29.562 27.0619C29.2803 27.3436 28.8983 27.5018 28.5 27.5018C28.1017 27.5018 27.7197 27.3436 27.438 27.0619C27.1563 26.7803 26.9981 26.3983 26.9981 25.9999C26.9981 25.6016 27.1563 25.2196 27.438 24.9379L36.879 15.4999H1.5C1.10218 15.4999 0.720644 15.3419 0.43934 15.0606C0.158035 14.7793 0 14.3978 0 13.9999Z" fill="white"/>
</svg>
