<svg width="43" height="28" viewBox="0 0 43 28" fill="none" xmlns="http://www.w3.org/2000/svg">
<path fill-rule="evenodd" clip-rule="evenodd" d="M43 14.0001C43 14.3979 42.842 14.7794 42.5607 15.0607C42.2794 15.342 41.8978 15.5001 41.5 15.5001H6.121L15.562 24.9381C15.8437 25.2197 16.0019 25.6017 16.0019 26.0001C16.0019 26.3984 15.8437 26.7804 15.562 27.0621C15.2803 27.3437 14.8983 27.502 14.5 27.502C14.1017 27.502 13.7197 27.3437 13.438 27.0621L1.438 15.0621C1.29831 14.9227 1.18748 14.7572 1.11186 14.575C1.03624 14.3927 0.997318 14.1974 0.997318 14.0001C0.997318 13.8028 1.03624 13.6074 1.11186 13.4252C1.18748 13.2429 1.29831 13.0774 1.438 12.9381L13.438 0.938057C13.7197 0.656397 14.1017 0.498163 14.5 0.498163C14.8983 0.498163 15.2803 0.656397 15.562 0.938057C15.8437 1.21972 16.0019 1.60173 16.0019 2.00006C16.0019 2.39838 15.8437 2.7804 15.562 3.06206L6.121 12.5001H41.5C41.8978 12.5001 42.2794 12.6581 42.5607 12.9394C42.842 13.2207 43 13.6022 43 14.0001Z" fill="white"/>
</svg>
