<svg width="16" height="16" viewBox="0 0 16 16" fill="none" xmlns="http://www.w3.org/2000/svg">
<path fill-rule="evenodd" clip-rule="evenodd" d="M5.33333 2.66665H10.6667V1.33331H12V2.66665H12.6667C13.0203 2.66665 13.3594 2.80712 13.6095 3.05717C13.8595 3.30722 14 3.64636 14 3.99998V13.3333C14 13.6869 13.8595 14.0261 13.6095 14.2761C13.3594 14.5262 13.0203 14.6666 12.6667 14.6666H3.33333C2.97971 14.6666 2.64057 14.5262 2.39052 14.2761C2.14048 14.0261 2 13.6869 2 13.3333V3.99998C2 3.64636 2.14048 3.30722 2.39052 3.05717C2.64057 2.80712 2.97971 2.66665 3.33333 2.66665H4V1.33331H5.33333V2.66665ZM3.33333 5.33331V13.3333H12.6667V5.33331H3.33333ZM4.66667 7.33331H6V8.66665H4.66667V7.33331ZM7.33333 7.33331H8.66667V8.66665H7.33333V7.33331ZM10 7.33331H11.3333V8.66665H10V7.33331ZM10 9.99998H11.3333V11.3333H10V9.99998ZM7.33333 9.99998H8.66667V11.3333H7.33333V9.99998ZM4.66667 9.99998H6V11.3333H4.66667V9.99998Z" fill="#D2AE6D"/>
</svg>
