<svg width="22" height="14" viewBox="0 0 22 14" fill="none" xmlns="http://www.w3.org/2000/svg">
<path fill-rule="evenodd" clip-rule="evenodd" d="M21.5 7.00015C21.5 7.19906 21.421 7.38983 21.2803 7.53048C21.1397 7.67113 20.9489 7.75015 20.75 7.75015L3.0605 7.75015L7.781 12.4692C7.92183 12.61 8.00095 12.801 8.00095 13.0002C8.00095 13.1993 7.92183 13.3903 7.781 13.5312C7.64017 13.672 7.44916 13.7511 7.25 13.7511C7.05084 13.7511 6.85983 13.672 6.719 13.5312L0.719 7.53115C0.649155 7.46148 0.59374 7.37872 0.555931 7.2876C0.518122 7.19648 0.498659 7.0988 0.498659 7.00015C0.498659 6.9015 0.518122 6.80382 0.555931 6.7127C0.59374 6.62158 0.649155 6.53882 0.719 6.46915L6.719 0.469151C6.85983 0.328321 7.05084 0.249205 7.25 0.249205C7.44916 0.249205 7.64017 0.328321 7.781 0.469151C7.92183 0.609982 8.00095 0.800988 8.00095 1.00015C8.00095 1.19932 7.92183 1.39032 7.781 1.53115L3.0605 6.25015L20.75 6.25015C20.9489 6.25015 21.1397 6.32917 21.2803 6.46982C21.421 6.61047 21.5 6.80124 21.5 7.00015Z" fill="#D2AE6D"/>
</svg>
