<svg width="24" height="24" viewBox="0 0 24 24" fill="none" xmlns="http://www.w3.org/2000/svg">
<rect x="0.6" y="0.600122" width="22.8" height="22.8" rx="3.4" stroke="black" stroke-opacity="0.5" stroke-width="1.2"/>
<path d="M6.96936 6.96912C7.03903 6.89927 7.1218 6.84386 7.21291 6.80605C7.30403 6.76824 7.40171 6.74878 7.50036 6.74878C7.59901 6.74878 7.6967 6.76824 7.78781 6.80605C7.87893 6.84386 7.9617 6.89927 8.03136 6.96912L12.0004 10.9396L15.9694 6.96912C16.0391 6.89939 16.1219 6.84407 16.213 6.80633C16.3041 6.7686 16.4017 6.74917 16.5004 6.74917C16.599 6.74917 16.6966 6.7686 16.7877 6.80633C16.8788 6.84407 16.9616 6.89939 17.0314 6.96912C17.1011 7.03885 17.1564 7.12164 17.1941 7.21274C17.2319 7.30385 17.2513 7.4015 17.2513 7.50012C17.2513 7.59874 17.2319 7.69639 17.1941 7.7875C17.1564 7.8786 17.1011 7.96139 17.0314 8.03112L13.0609 12.0001L17.0314 15.9691C17.1011 16.0388 17.1564 16.1216 17.1941 16.2127C17.2319 16.3039 17.2513 16.4015 17.2513 16.5001C17.2513 16.5987 17.2319 16.6964 17.1941 16.7875C17.1564 16.8786 17.1011 16.9614 17.0314 17.0311C16.9616 17.1009 16.8788 17.1562 16.7877 17.1939C16.6966 17.2316 16.599 17.2511 16.5004 17.2511C16.4017 17.2511 16.3041 17.2316 16.213 17.1939C16.1219 17.1562 16.0391 17.1009 15.9694 17.0311L12.0004 13.0606L8.03136 17.0311C7.96163 17.1009 7.87885 17.1562 7.78774 17.1939C7.69663 17.2316 7.59898 17.2511 7.50036 17.2511C7.40175 17.2511 7.3041 17.2316 7.21299 17.1939C7.12188 17.1562 7.0391 17.1009 6.96936 17.0311C6.89963 16.9614 6.84432 16.8786 6.80658 16.7875C6.76884 16.6964 6.74942 16.5987 6.74942 16.5001C6.74942 16.4015 6.76884 16.3039 6.80658 16.2127C6.84432 16.1216 6.89963 16.0388 6.96936 15.9691L10.9399 12.0001L6.96936 8.03112C6.89952 7.96145 6.8441 7.87869 6.80629 7.78757C6.76849 7.69645 6.74902 7.59877 6.74902 7.50012C6.74902 7.40147 6.76849 7.30379 6.80629 7.21267C6.8441 7.12155 6.89952 7.03879 6.96936 6.96912Z" fill="black" fill-opacity="1"/>
</svg>
