<svg width="15" height="25" viewBox="0 0 15 25" fill="none" xmlns="http://www.w3.org/2000/svg">
<path fill-rule="evenodd" clip-rule="evenodd" d="M0.293787 0.282455C0.386678 0.192921 0.49703 0.121885 0.61852 0.073417C0.74001 0.0249487 0.870253 0 1.00179 0C1.13332 0 1.26356 0.0249487 1.38505 0.073417C1.50655 0.121885 1.6169 0.192921 1.70979 0.282455L13.7098 11.8196C13.8029 11.9089 13.8768 12.015 13.9272 12.1318C13.9776 12.2486 14.0036 12.3738 14.0036 12.5003C14.0036 12.6267 13.9776 12.7519 13.9272 12.8687C13.8768 12.9855 13.8029 13.0916 13.7098 13.1809L1.70979 24.7181C1.52201 24.8986 1.26734 25 1.00179 25C0.736236 25 0.48156 24.8986 0.293787 24.7181C0.106014 24.5375 0.000523567 24.2927 0.000523567 24.0374C0.000523567 23.7821 0.106014 23.5372 0.293787 23.3567L11.5878 12.5003L0.293787 1.64383C0.200661 1.55453 0.126775 1.44843 0.0763617 1.33163C0.0259488 1.21482 0 1.08961 0 0.963144C0 0.836684 0.0259488 0.711465 0.0763617 0.594661C0.126775 0.477858 0.200661 0.371763 0.293787 0.282455Z" fill="white" fill-opacity="0.8"/>
</svg>
