<svg width="15" height="25" viewBox="0 0 15 25" fill="none" xmlns="http://www.w3.org/2000/svg">
<path fill-rule="evenodd" clip-rule="evenodd" d="M14.7062 24.7175C14.6133 24.8071 14.503 24.8781 14.3815 24.9266C14.26 24.9751 14.1297 25 13.9982 25C13.8667 25 13.7364 24.9751 13.6149 24.9266C13.4935 24.8781 13.3831 24.8071 13.2902 24.7175L1.29021 13.1804C1.19708 13.0911 1.1232 12.985 1.07279 12.8682C1.02237 12.7514 0.996424 12.6262 0.996424 12.4997C0.996424 12.3733 1.02237 12.2481 1.07279 12.1313C1.1232 12.0145 1.19708 11.9084 1.29021 11.8191L13.2902 0.28195C13.478 0.101421 13.7327 0 13.9982 0C14.2638 0 14.5184 0.101421 14.7062 0.28195C14.894 0.462481 14.9995 0.707333 14.9995 0.962641C14.9995 1.21795 14.894 1.4628 14.7062 1.64333L3.41221 12.4997L14.7062 23.3562C14.7993 23.4455 14.8732 23.5516 14.9236 23.6684C14.9741 23.7852 15 23.9104 15 24.0369C15 24.1633 14.9741 24.2885 14.9236 24.4053C14.8732 24.5221 14.7993 24.6282 14.7062 24.7175Z" fill="white" fill-opacity="0.8"/>
</svg>
