<svg width="222" height="96" viewBox="0 0 222 96" fill="none" xmlns="http://www.w3.org/2000/svg">
<path d="M41.5903 39.7049C30.8372 39.7049 22.1863 47.3426 22.1863 60.2859C22.1863 72.5864 30.4329 80.3044 40.9435 80.3044C50.3223 80.3044 60.4286 74.0336 60.4286 59.6428C60.4286 47.8249 52.8287 39.7049 41.5903 39.7049ZM41.4285 45.0109C49.837 45.0109 53.1519 53.2917 53.1519 59.8839C53.1519 68.647 48.0584 74.998 41.2671 74.998C34.314 74.998 29.463 68.5667 29.463 60.0448C29.463 52.7288 33.1011 45.0109 41.4289 45.0109H41.4285Z" fill="#222222"/>
<path d="M65.7817 10.9624C62.894 10.9624 60.9683 13.1381 60.9683 15.7487C60.9683 18.3594 62.8061 20.4481 65.6068 20.4481C68.6698 20.4481 70.5077 18.3594 70.5077 15.7487C70.5077 13.0511 68.5824 10.9624 65.7817 10.9624Z" fill="#D2AE6D"/>
<path d="M69.3361 79.4202V40.509H62.2212V79.4202H69.3361Z" fill="#222222"/>
<path d="M73.27 79.4209H80.3849V56.0259C80.3849 54.8199 80.5467 53.6143 80.8699 52.7296C82.1635 48.7902 85.8016 45.4939 90.4101 45.4939C97.1208 45.4939 99.4654 50.7196 99.4654 56.9904V79.4205H106.58V56.2666C106.58 42.921 98.1718 39.7049 92.7547 39.7049C86.2866 39.7049 81.7592 43.3226 79.8185 46.9406H79.6567L79.2524 40.5089H72.946C73.1885 43.7246 73.2696 46.9406 73.2696 51.0406V79.4201L73.27 79.4209Z" fill="#222222"/>
<path d="M127.534 39.7049C116.781 39.7049 108.13 47.3426 108.13 60.2859C108.13 72.5864 116.377 80.3044 126.888 80.3044C136.266 80.3044 146.373 74.0336 146.373 59.6428C146.373 47.8249 138.773 39.7049 127.534 39.7049ZM127.373 45.0109C135.781 45.0109 139.096 53.2917 139.096 59.8839C139.096 68.647 134.003 74.998 127.211 74.998C120.258 74.998 115.407 68.5667 115.407 60.0448C115.407 52.7288 119.045 45.0109 127.373 45.0109H127.373Z" fill="#222222"/>
<path fill-rule="evenodd" clip-rule="evenodd" d="M112.712 3.07371C162.019 -3.30606 181.693 0.970853 200.792 9.25839C182.45 1.75205 158.352 -0.870036 115.138 4.9209C101.498 6.7488 86.2614 10.5848 71.7943 15.6696C71.7812 14.6438 71.5482 13.6895 71.1313 12.8576C84.6439 8.28484 98.9675 4.85206 112.712 3.07371ZM0.000391138 83.753H7.03421V66.2768C11.708 89.1054 57.8485 101.323 114.088 93.765C173.431 85.7902 221.538 58.8192 221.538 33.5239C221.538 28.8855 219.917 24.6267 216.907 20.8123C236.074 49.1356 156.275 89.9987 156.275 66.879V45.896H166.462V40.5094H156.275V31.1835L149.322 33.2737V40.5094H143.258V45.896H149.322V67.1606C149.322 71.703 150.131 75.1598 152.071 77.3303C152.443 77.7355 152.861 78.1057 153.323 78.4369C139.399 82.3842 123.893 84.9567 108.48 87.1626C90.4135 89.7485 15.608 91.1622 13.358 61.8016C12.1119 45.5416 34.3625 30.5899 61.0618 19.7318C60.4304 18.9809 59.9969 18.0585 59.7999 17.0358C32.2734 28.0618 10.2182 43.5933 7.03381 58.6996V29.5668H0V83.753H0.000391138Z" fill="#222222"/>
<path d="M73.6479 32.3872H74.7358V28.7569H75.7611C76.7489 28.7943 77.2113 29.2293 77.4614 30.3854C77.6864 31.4298 77.8739 32.1382 78.0116 32.3872H79.1366C78.9614 32.0638 78.7616 31.2559 78.4867 30.0872C78.2865 29.2167 77.8993 28.62 77.2612 28.3966V28.3593C78.1366 28.0607 78.8364 27.3275 78.8364 26.2332C78.8364 25.5743 78.5864 25.0024 78.1738 24.6295C77.6611 24.1692 76.8984 23.9454 75.7358 23.9454C74.9981 23.9454 74.1978 24.0202 73.6479 24.1197V32.3872ZM74.7358 24.8781C74.9233 24.8285 75.286 24.7912 75.811 24.7912C76.9613 24.7912 77.7489 25.2636 77.7489 26.3453C77.7489 27.3023 77.0112 27.9364 75.8486 27.9364H74.7358V24.8781ZM84.9754 27.5635H81.7123V24.9154H85.1756V24.008H80.6121V32.3872H85.3631V31.4797H81.7123V28.4588H84.9754V27.5635ZM86.6008 31.9769C87.051 32.2751 87.9383 32.5241 88.7512 32.5241C90.7394 32.5241 91.6896 31.3928 91.6896 30.0998C91.6896 28.869 90.9767 28.1854 89.5515 27.6382C88.3889 27.1906 87.8762 26.8051 87.8762 26.022C87.8762 25.45 88.3137 24.7664 89.464 24.7664C90.2267 24.7664 90.7892 25.0024 91.0519 25.164L91.3518 24.2814C90.989 24.0701 90.3517 23.8711 89.5012 23.8711C87.8635 23.8711 86.7757 24.8407 86.7757 26.1459C86.7757 27.3145 87.6258 28.0355 89.0012 28.5331C90.1389 28.9556 90.5891 29.4158 90.5891 30.1868C90.5891 31.0321 89.9391 31.6166 88.8264 31.6166C88.0763 31.6166 87.3762 31.3802 86.8884 31.0694L86.6008 31.9769ZM95.0401 32.3872H96.1403V24.928H98.7159V24.008H92.4772V24.928H95.0401V32.3872ZM103.317 29.7517L104.217 32.3872H105.38L102.504 24.008H101.204L98.3286 32.3872H99.4536L100.329 29.7517H103.317ZM100.554 28.9064L101.379 26.4822C101.554 25.9724 101.679 25.4504 101.804 24.9654H101.829C101.954 25.4504 102.079 25.9476 102.266 26.4944L103.104 28.906H100.553L100.554 28.9064ZM106.505 24.0084V28.9438C106.505 31.5545 107.805 32.5241 109.53 32.5241C111.356 32.5241 112.718 31.4797 112.718 28.9064V24.0084H111.618V28.9811C111.618 30.8212 110.805 31.6414 109.568 31.6414C108.443 31.6414 107.605 30.846 107.605 28.9811V24.0084H106.505ZM114.856 32.3876H115.944V28.7573H116.97C117.957 28.7947 118.42 29.2297 118.67 30.3858C118.895 31.4302 119.082 32.1386 119.22 32.3876H120.345C120.17 32.0642 119.97 31.2563 119.695 30.0876C119.495 29.2172 119.108 28.6204 118.47 28.397V28.3596C119.345 28.0611 120.045 27.3279 120.045 26.2336C120.045 25.5747 119.795 25.0028 119.382 24.6299C118.87 24.1696 118.107 23.9458 116.944 23.9458C116.206 23.9458 115.406 24.0206 114.856 24.1201V32.3876ZM115.944 24.8785C116.132 24.8289 116.494 24.7915 117.019 24.7915C118.17 24.7915 118.957 25.264 118.957 26.3457C118.957 27.3027 118.22 27.9368 117.057 27.9368H115.944V24.8785ZM126.246 29.7517L127.147 32.3872H128.309L125.434 24.008H124.134L121.258 32.3872H122.383L123.258 29.7517H126.246ZM123.483 28.9064L124.308 26.4822C124.484 25.9724 124.608 25.4504 124.733 24.9654H124.758C124.883 25.4504 125.008 25.9476 125.196 26.4944L126.033 28.906H123.482L123.483 28.9064ZM130.822 32.3876V28.8073C130.822 27.4148 130.81 26.4078 130.747 25.3513L130.785 25.3387C131.197 26.2462 131.76 27.2036 132.348 28.1358L135.023 32.3876H136.123V24.0084H135.098V27.5143C135.098 28.8199 135.123 29.839 135.223 30.9581L135.185 30.9703C134.798 30.1124 134.298 29.2297 133.685 28.2475L130.997 24.0084H129.797V32.3876H130.822H130.822ZM139.874 32.3876H140.974V24.9284H143.55V24.0084H137.311V24.9284H139.874V32.3876Z" fill="#D2AE6D"/>
</svg>
