<svg width="120" height="52" viewBox="0 0 120 52" fill="none" xmlns="http://www.w3.org/2000/svg">
<path d="M22.528 21.5068C16.7034 21.5068 12.0175 25.6439 12.0175 32.6549C12.0175 39.3176 16.4844 43.4982 22.1776 43.4982C27.2578 43.4982 32.7321 40.1015 32.7321 32.3065C32.7321 25.9052 28.6155 21.5068 22.528 21.5068ZM22.4403 24.3809C26.9949 24.3809 28.7905 28.8663 28.7905 32.4371C28.7905 37.1838 26.0315 40.6239 22.3529 40.6239C18.5866 40.6239 15.959 37.1403 15.959 32.5242C15.959 28.5614 17.9297 24.3809 22.4405 24.3809H22.4403Z" fill="white"/>
<path d="M35.6316 5.93799C34.0674 5.93799 33.0243 7.11645 33.0243 8.53057C33.0243 9.94468 34.0198 11.0761 35.5369 11.0761C37.196 11.0761 38.1915 9.94468 38.1915 8.53057C38.1915 7.06936 37.1486 5.93799 35.6316 5.93799Z" fill="#D2AE6D"/>
<path d="M37.557 43.0193V21.9424H33.7031V43.0193H37.557Z" fill="white"/>
<path d="M39.6879 43.0197H43.5419V30.3474C43.5419 29.6941 43.6295 29.0411 43.8046 28.5619C44.5052 26.428 46.4759 24.6425 48.9722 24.6425C52.6071 24.6425 53.8771 27.4731 53.8771 30.8698V43.0194H57.731V30.4778C57.731 23.2489 53.1764 21.5068 50.2422 21.5068C46.7386 21.5068 44.2862 23.4664 43.235 25.4262H43.1474L42.9284 21.9423H39.5125C39.6438 23.6842 39.6877 25.4262 39.6877 27.647V43.0192L39.6879 43.0197Z" fill="white"/>
<path d="M69.0811 21.5068C63.2565 21.5068 58.5706 25.6439 58.5706 32.6549C58.5706 39.3176 63.0375 43.4982 68.7307 43.4982C73.8109 43.4982 79.2852 40.1015 79.2852 32.3065C79.2852 25.9052 75.1685 21.5068 69.0811 21.5068ZM68.9934 24.3809C73.548 24.3809 75.3436 28.8663 75.3436 32.4371C75.3436 37.1838 72.5846 40.6239 68.906 40.6239C65.1397 40.6239 62.5121 37.1403 62.5121 32.5242C62.5121 28.5614 64.4828 24.3809 68.9936 24.3809H68.9934Z" fill="white"/>
<path fill-rule="evenodd" clip-rule="evenodd" d="M61.0523 1.66493C87.7601 -1.79078 98.4172 0.525879 108.762 5.01496C98.8271 0.949027 85.7742 -0.471269 62.3666 2.66548C54.9783 3.6556 46.725 5.73342 38.8886 8.48773C38.8815 7.93205 38.7553 7.41515 38.5294 6.96451C45.8488 4.48762 53.6074 2.6282 61.0523 1.66493ZM0.000211866 45.3662H3.8102V35.8999C6.34183 48.2654 31.3346 54.8832 61.7975 50.7894C93.9419 46.4697 120 31.8604 120 18.1588C120 15.6463 119.121 13.3394 117.492 11.2733C127.874 26.6151 84.6491 48.7493 84.6491 36.2261V24.8603H90.167V21.9426H84.6491V16.891L80.8828 18.0233V21.9426H77.5982V24.8603H80.8828V36.3787C80.8828 38.8392 81.3208 40.7116 82.3718 41.8873C82.5732 42.1067 82.7999 42.3072 83.0497 42.4866C75.508 44.6247 67.1087 46.0182 58.76 47.2131C48.974 48.6138 8.45434 49.3795 7.23556 33.4759C6.5606 24.6684 18.613 16.5695 33.0751 10.6881C32.7332 10.2813 32.4983 9.78167 32.3916 9.2277C17.4814 15.2001 5.53488 23.6131 3.80998 31.7956V16.0153H0V45.3662H0.000211866Z" fill="white"/>
<path d="M39.8925 17.5435H40.4817V15.5772H41.0371C41.5721 15.5974 41.8226 15.833 41.958 16.4592C42.08 17.0249 42.1815 17.4087 42.2561 17.5435H42.8655C42.7706 17.3684 42.6624 16.9308 42.5134 16.2977C42.405 15.8262 42.1952 15.503 41.8496 15.382V15.3617C42.3238 15.2 42.7029 14.8029 42.7029 14.2101C42.7029 13.8532 42.5674 13.5434 42.344 13.3415C42.0663 13.0922 41.6531 12.9709 41.0234 12.9709C40.6238 12.9709 40.1903 13.0114 39.8925 13.0653V17.5435ZM40.4817 13.4761C40.5833 13.4493 40.7798 13.429 41.0641 13.429C41.6872 13.429 42.1138 13.6849 42.1138 14.2708C42.1138 14.7892 41.7142 15.1327 41.0845 15.1327H40.4817V13.4761ZM46.0282 14.9307H44.2606V13.4964H46.1366V13.0048H43.6647V17.5435H46.2381V17.052H44.2606V15.4157H46.0282V14.9307ZM46.9086 17.3213C47.1524 17.4828 47.6331 17.6177 48.0734 17.6177C49.1503 17.6177 49.665 17.0049 49.665 16.3046C49.665 15.6379 49.2789 15.2676 48.5069 14.9712C47.8771 14.7287 47.5994 14.5199 47.5994 14.0957C47.5994 13.7859 47.8364 13.4156 48.4595 13.4156C48.8726 13.4156 49.1773 13.5434 49.3196 13.631L49.482 13.1529C49.2855 13.0385 48.9403 12.9307 48.4796 12.9307C47.5926 12.9307 47.0033 13.4559 47.0033 14.1628C47.0033 14.7958 47.4638 15.1864 48.2088 15.4559C48.8251 15.6848 49.0689 15.934 49.0689 16.3517C49.0689 16.8095 48.7168 17.1262 48.1141 17.1262C47.7078 17.1262 47.3286 16.9981 47.0644 16.8298L46.9086 17.3213ZM51.4799 17.5435H52.0758V13.5032H53.4709V13.0048H50.0916V13.5032H51.4799V17.5435ZM55.9631 16.116L56.4508 17.5435H57.0806L55.523 13.0048H54.8187L53.2611 17.5435H53.8705L54.3445 16.116H55.9631ZM54.4664 15.6581L54.9134 14.345C55.0083 14.0689 55.0758 13.7861 55.1435 13.5234H55.157C55.2247 13.7861 55.2924 14.0554 55.394 14.3516L55.8476 15.6579H54.466L54.4664 15.6581ZM57.69 13.005V15.6784C57.69 17.0925 58.3943 17.6177 59.3287 17.6177C60.3176 17.6177 61.0555 17.052 61.0555 15.6581V13.005H60.4596V15.6986C60.4596 16.6953 60.0193 17.1396 59.3491 17.1396C58.7397 17.1396 58.2858 16.7088 58.2858 15.6986V13.005H57.69ZM62.2137 17.5438H62.8029V15.5774H63.3583C63.8934 15.5976 64.1438 15.8333 64.2793 16.4595C64.4012 17.0252 64.5028 17.4089 64.5773 17.5438H65.1867C65.0918 17.3686 64.9836 16.931 64.8347 16.298C64.7262 15.8264 64.5165 15.5032 64.1708 15.3822V15.362C64.645 15.2002 65.0241 14.8031 65.0241 14.2103C65.0241 13.8535 64.8887 13.5437 64.6652 13.3417C64.3875 13.0924 63.9744 12.9711 63.3446 12.9711C62.945 12.9711 62.5115 13.0116 62.2137 13.0655V17.5438ZM62.8029 13.4763C62.9045 13.4495 63.101 13.4292 63.3853 13.4292C64.0084 13.4292 64.435 13.6851 64.435 14.2711C64.435 14.7895 64.0354 15.1329 63.4057 15.1329H62.8029V13.4763ZM68.3832 16.116L68.8709 17.5435H69.5007L67.9431 13.0048H67.2388L65.6812 17.5435H66.2906L66.7646 16.116H68.3832ZM66.8865 15.6581L67.3335 14.345C67.4284 14.0689 67.4959 13.7861 67.5636 13.5234H67.5771C67.6448 13.7861 67.7126 14.0554 67.8141 14.3516L68.2677 15.6579H66.8861L66.8865 15.6581ZM70.8619 17.5438V15.6044C70.8619 14.8502 70.8553 14.3047 70.8212 13.7324L70.8416 13.7256C71.0651 14.2172 71.3698 14.7358 71.6882 15.2407L73.1373 17.5438H73.7332V13.005H73.1778V14.9041C73.1778 15.6113 73.1913 16.1633 73.2455 16.7695L73.2251 16.7761C73.0152 16.3114 72.7443 15.8333 72.4124 15.3012L70.9564 13.005H70.3063V17.5438H70.8617H70.8619ZM75.7649 17.5438H76.3608V13.5034H77.7559V13.005H74.3767V13.5034H75.7649V17.5438Z" fill="#D2AE6D"/>
</svg>
