<svg width="12" height="12" viewBox="0 0 12 12" fill="none" xmlns="http://www.w3.org/2000/svg">
<mask id="mask0" mask-type="alpha" maskUnits="userSpaceOnUse" x="0" y="0" width="12" height="12">
<path d="M9.48384 7.43356C9.23817 7.17776 8.94185 7.04099 8.6278 7.04099C8.31628 7.04099 8.01742 7.17523 7.76162 7.43103L6.96129 8.22882C6.89544 8.19336 6.82959 8.16044 6.76628 8.12751C6.6751 8.08193 6.58899 8.03887 6.51554 7.99328C5.76587 7.51714 5.08457 6.89663 4.43114 6.09377C4.11456 5.69361 3.90181 5.35676 3.74732 5.01485C3.955 4.8249 4.14748 4.62735 4.3349 4.4374C4.40582 4.36648 4.47673 4.29303 4.54765 4.22212C5.07951 3.69025 5.07951 3.00137 4.54765 2.4695L3.85622 1.77808C3.77771 1.69957 3.69667 1.61852 3.62068 1.53748C3.46872 1.38045 3.30916 1.21836 3.14454 1.0664C2.89887 0.823259 2.60508 0.694092 2.29609 0.694092C1.9871 0.694092 1.68825 0.823259 1.43498 1.0664C1.43245 1.06893 1.43245 1.06893 1.42991 1.07146L0.568803 1.94017C0.244619 2.26435 0.0597336 2.65945 0.0192107 3.11787C-0.0415737 3.85741 0.176237 4.5463 0.343394 4.99712C0.753689 6.1039 1.3666 7.12964 2.2809 8.22882C3.39021 9.55341 4.72493 10.5994 6.24961 11.3364C6.83213 11.6125 7.60966 11.9392 8.47837 11.9949C8.53156 11.9975 8.58727 12 8.63793 12C9.22298 12 9.71432 11.7898 10.0993 11.3719C10.1018 11.3668 10.1069 11.3643 10.1094 11.3592C10.2411 11.1997 10.3931 11.0553 10.5526 10.9008C10.6615 10.797 10.773 10.6881 10.8819 10.5741C11.1326 10.3132 11.2643 10.0093 11.2643 9.69778C11.2643 9.38372 11.1301 9.08233 10.8743 8.82907L9.48384 7.43356ZM10.3905 10.1005C10.388 10.1005 10.388 10.103 10.3905 10.1005C10.2918 10.2068 10.1905 10.3031 10.0816 10.4095C9.91693 10.5665 9.74978 10.7311 9.59275 10.916C9.33695 11.1895 9.03556 11.3187 8.64046 11.3187C8.60247 11.3187 8.56195 11.3187 8.52396 11.3162C7.77175 11.268 7.07273 10.9742 6.54847 10.7235C5.11497 10.0296 3.85622 9.04434 2.81023 7.79573C1.94658 6.7548 1.36913 5.79238 0.986695 4.75905C0.751156 4.12841 0.665045 3.63707 0.703035 3.17359C0.728362 2.87726 0.842332 2.63159 1.05255 2.42138L1.91619 1.55774C2.04029 1.44123 2.17199 1.37792 2.30116 1.37792C2.46072 1.37792 2.58988 1.47416 2.67093 1.5552C2.67346 1.55774 2.67599 1.56027 2.67853 1.5628C2.83302 1.70716 2.97992 1.85659 3.13441 2.01615C3.21292 2.0972 3.29397 2.17824 3.37501 2.26182L4.06644 2.95324C4.3349 3.22171 4.3349 3.46991 4.06644 3.73838C3.99299 3.81182 3.92207 3.88527 3.84863 3.95619C3.63588 4.174 3.43327 4.37661 3.21292 4.57416C3.20786 4.57923 3.20279 4.58176 3.20026 4.58682C2.98245 4.80464 3.02297 5.01738 3.06856 5.16174C3.07109 5.16934 3.07363 5.17694 3.07616 5.18454C3.25598 5.62016 3.50925 6.03045 3.89421 6.51926L3.89675 6.52179C4.59577 7.38291 5.33278 8.05407 6.14577 8.5682C6.24961 8.63405 6.35598 8.68724 6.45729 8.73789C6.54847 8.78348 6.63458 8.82653 6.70802 8.87212C6.71815 8.87719 6.72829 8.88479 6.73842 8.88985C6.82453 8.93291 6.90557 8.95317 6.98915 8.95317C7.19936 8.95317 7.33106 8.82147 7.37412 8.77841L8.2403 7.91224C8.32641 7.82612 8.46317 7.72228 8.62273 7.72228C8.77976 7.72228 8.90893 7.82106 8.98744 7.90717C8.98997 7.9097 8.98997 7.9097 8.9925 7.91224L10.388 9.30774C10.6489 9.56608 10.6489 9.83201 10.3905 10.1005Z" fill="black"/>
<path d="M6.48529 2.85448C7.14886 2.96592 7.75164 3.27997 8.23284 3.76118C8.71405 4.24239 9.02557 4.84517 9.13954 5.50873C9.1674 5.67589 9.31177 5.79239 9.47639 5.79239C9.49665 5.79239 9.51438 5.78986 9.53464 5.78733C9.72206 5.75693 9.84616 5.57965 9.81577 5.39223C9.67901 4.58937 9.2991 3.85742 8.71912 3.27744C8.13914 2.69745 7.40719 2.31755 6.60433 2.18079C6.41691 2.15039 6.24216 2.2745 6.20923 2.45938C6.17631 2.64427 6.29788 2.82409 6.48529 2.85448Z" fill="black"/>
<path d="M11.9862 5.29345C11.7608 3.97139 11.1377 2.76837 10.1804 1.81102C9.223 0.853661 8.01998 0.230621 6.69792 0.00521263C6.51304 -0.0277122 6.33828 0.0989219 6.30536 0.283808C6.27496 0.471226 6.39907 0.645981 6.58648 0.678906C7.76671 0.878988 8.8431 1.43871 9.69915 2.29222C10.5552 3.14827 11.1124 4.22466 11.3125 5.40489C11.3403 5.57205 11.4847 5.68855 11.6493 5.68855C11.6696 5.68855 11.6873 5.68602 11.7076 5.68349C11.8925 5.65563 12.0191 5.47834 11.9862 5.29345Z" fill="black"/>
</mask>
<g mask="url(#mask0)">
<rect x="-6.79541" y="-61.1591" width="97.75" height="90.4318" fill="white"/>
</g>
</svg>
