<svg width="24" height="24" viewBox="0 0 24 24" fill="none" xmlns="http://www.w3.org/2000/svg">
<path d="M7.65595 18.6676C6.27214 18.6676 5.15039 19.7894 5.15039 21.1732C5.15039 22.557 6.27219 23.6787 7.65595 23.6787C9.03976 23.6787 10.1615 22.5569 10.1615 21.1732C10.1616 19.7894 9.03976 18.6676 7.65595 18.6676ZM7.65595 22.5652C6.88718 22.5652 6.26398 21.942 6.26398 21.1732C6.26398 20.4044 6.88718 19.7812 7.65595 19.7812C8.42472 19.7812 9.04791 20.4044 9.04791 21.1732C9.04796 21.942 8.42472 22.5652 7.65595 22.5652Z" fill="white"/>
<path d="M18.235 18.6676C16.8512 18.6676 15.7295 19.7894 15.7295 21.1732C15.7295 22.557 16.8513 23.6787 18.235 23.6787C19.6188 23.6787 20.7406 22.5569 20.7406 21.1732C20.7406 19.7894 19.6189 18.6676 18.235 18.6676ZM18.235 22.5652C17.4663 22.5652 16.8431 21.942 16.8431 21.1732C16.8431 20.4044 17.4663 19.7812 18.235 19.7812C19.0038 19.7812 19.627 20.4044 19.627 21.1732C19.6271 21.942 19.0038 22.5652 18.235 22.5652Z" fill="white"/>
<path d="M23.8865 4.05177C23.7706 3.92511 23.6119 3.84582 23.4411 3.82903L5.31741 3.57847L4.8163 2.04727C4.46327 1.02368 3.50475 0.332654 2.42206 0.321198H0.556797C0.249277 0.321198 0 0.570474 0 0.877994C0 1.18551 0.249277 1.43479 0.556797 1.43479H2.42206C3.02745 1.44817 3.56054 1.83689 3.75839 2.4092L7.29404 13.0718L7.01567 13.7121C6.70517 14.5128 6.79842 15.414 7.26623 16.1342C7.72956 16.8415 8.50904 17.278 9.35423 17.3035H20.1839C20.4914 17.3035 20.7407 17.0542 20.7407 16.7467C20.7407 16.4391 20.4914 16.1899 20.1839 16.1899H9.35418C8.87688 16.1779 8.43753 15.9268 8.1849 15.5217C7.93509 15.1215 7.88377 14.6285 8.04571 14.1854L8.26845 13.6843L19.989 12.4593C21.2764 12.3175 22.3354 11.3811 22.6338 10.1207L23.9701 4.52496C24.0303 4.36382 23.9984 4.18259 23.8865 4.05177ZM21.548 9.87023C21.3673 10.6816 20.6784 11.28 19.8498 11.3458L8.26845 12.5428L5.67934 4.69207L22.7451 4.94262L21.548 9.87023Z" fill="white"/>
</svg>
