<svg width="12" height="12" viewBox="0 0 12 12" fill="none" xmlns="http://www.w3.org/2000/svg">
<path d="M6 0C2.68633 0 0 2.68633 0 6C0 9.31367 2.68633 12 6 12C9.31367 12 12 9.31367 12 6C11.9963 2.68789 9.31211 0.00371095 6 0ZM11.1892 8.10195L9.48281 8.39639C9.67813 7.68008 9.78359 6.94229 9.79678 6.2H11.595C11.5725 6.85293 11.4351 7.49678 11.1892 8.10195ZM0.40498 6.2H2.20322C2.21641 6.94229 2.32188 7.68008 2.51719 8.39639L0.81084 8.10195C0.564941 7.49678 0.427539 6.85293 0.40498 6.2ZM0.81084 3.89805L2.51719 3.60361C2.32188 4.31992 2.21641 5.05771 2.20322 5.8H0.40498C0.427539 5.14707 0.564941 4.50322 0.81084 3.89805ZM6.2 3.21123C6.91865 3.22041 7.63555 3.28584 8.34404 3.40703L9.05 3.52881C9.26689 4.26689 9.38359 5.03076 9.39697 5.8H6.2V3.21123ZM8.41221 3.01279C7.68125 2.88789 6.9415 2.82041 6.2 2.81123V0.41123C7.34658 0.521387 8.34258 1.57119 8.90703 3.09902L8.41221 3.01279ZM5.8 2.81123C5.0585 2.82041 4.31895 2.88789 3.58799 3.01279L3.09297 3.09844C3.65742 1.57021 4.65342 0.52002 5.8 0.410352V2.81123ZM3.65615 3.40703C4.36455 3.28584 5.08135 3.22041 5.8 3.21123V5.8H2.60303C2.61641 5.03076 2.73311 4.26689 2.95 3.52881L3.65615 3.40703ZM2.60303 6.2H5.8V8.78877C5.08135 8.77959 4.36445 8.71416 3.65596 8.59297L2.95 8.47119C2.73311 7.73311 2.61641 6.96924 2.60303 6.2ZM3.58779 8.98721C4.31875 9.1123 5.0584 9.18008 5.8 9.18984V11.5898C4.65342 11.4796 3.65742 10.4298 3.09297 8.90195L3.58779 8.98721ZM6.2 9.18984C6.9415 9.18008 7.68105 9.1123 8.41201 8.98721L8.90703 8.90156C8.34258 10.4298 7.34658 11.48 6.2 11.5896V9.18984ZM8.34385 8.59297C7.63545 8.71416 6.91865 8.77959 6.2 8.78877V6.2H9.39697C9.38359 6.96924 9.26689 7.73311 9.05 8.47119L8.34385 8.59297ZM9.79678 5.8C9.78359 5.05771 9.67813 4.31992 9.48281 3.60361L11.1892 3.89805C11.4351 4.50322 11.5725 5.14707 11.595 5.8H9.79678ZM10.9868 3.45723L9.35117 3.175C9.05713 2.21572 8.50703 1.35479 7.75996 0.684961C9.15693 1.15117 10.3154 2.14639 10.9868 3.45723ZM4.24004 0.684961C3.49297 1.35479 2.94287 2.21572 2.64883 3.175L1.01318 3.45723C1.68457 2.14639 2.84307 1.15117 4.24004 0.684961ZM1.01318 8.54277L2.64883 8.825C2.94287 9.78428 3.49297 10.6452 4.24004 11.315C2.84307 10.8488 1.68457 9.85361 1.01318 8.54277ZM7.75996 11.315C8.50703 10.6452 9.05713 9.78428 9.35117 8.825L10.9868 8.54277C10.3154 9.85361 9.15693 10.8488 7.75996 11.315Z" fill="white"/>
</svg>
