<svg width="23" height="23" viewBox="0 0 23 23" fill="none" xmlns="http://www.w3.org/2000/svg">
<path d="M13.3684 18.3042C18.1711 18.3042 22.04 14.4351 22.04 9.63211C22.04 4.82909 18.1711 0.959991 13.3684 0.959991C8.56557 0.959991 4.69666 4.82909 4.69666 9.63211C4.69666 14.4351 8.56557 18.3042 13.3684 18.3042ZM13.3684 2.29416C17.4374 2.29416 20.7059 5.56289 20.7059 9.63211C20.7059 13.7013 17.4374 16.9701 13.3684 16.9701C9.29933 16.9701 6.03077 13.7013 6.03077 9.63211C6.03077 5.56289 9.29933 2.29416 13.3684 2.29416Z" fill="white"/>
<path d="M6.91006 15.1469L0.919925 21.1373L1.86314 22.0806L7.85327 16.0902L6.91006 15.1469Z" fill="white"/>
</svg>
