<svg width="12" height="12" viewBox="0 0 12 12" fill="none" xmlns="http://www.w3.org/2000/svg">
<path d="M5.91448 5.78045C6.70861 5.78045 7.39617 5.49563 7.95812 4.93368C8.51989 4.37182 8.8048 3.68435 8.8048 2.89013C8.8048 2.09619 8.51998 1.40863 7.95803 0.846587C7.39608 0.28482 6.70852 0 5.91448 0C5.12027 0 4.4328 0.28482 3.87094 0.846678C3.30908 1.40854 3.02417 2.0961 3.02417 2.89013C3.02417 3.68435 3.30908 4.37191 3.87094 4.93377C4.43298 5.49553 5.12054 5.78045 5.91448 5.78045ZM4.36825 1.3439C4.79937 0.912779 5.30511 0.703215 5.91448 0.703215C6.52377 0.703215 7.02959 0.912779 7.46081 1.3439C7.89193 1.77511 8.10158 2.28094 8.10158 2.89013C8.10158 3.49951 7.89193 4.00524 7.46081 4.43645C7.02959 4.86767 6.52377 5.07723 5.91448 5.07723C5.30529 5.07723 4.79956 4.86758 4.36825 4.43645C3.93704 4.00533 3.72739 3.49951 3.72739 2.89013C3.72739 2.28094 3.93704 1.77511 4.36825 1.3439Z" fill="white"/>
<path d="M10.9718 9.22741C10.9555 8.99359 10.9228 8.73852 10.8745 8.46917C10.8258 8.19781 10.7631 7.94128 10.688 7.70681C10.6104 7.46447 10.505 7.22516 10.3746 6.99582C10.2393 6.75778 10.0804 6.55051 9.90205 6.37994C9.71556 6.20151 9.48723 6.05804 9.22319 5.9534C8.96007 5.8493 8.66847 5.79657 8.35655 5.79657C8.23406 5.79657 8.11559 5.84683 7.8868 5.99579C7.74599 6.08762 7.58129 6.19382 7.39745 6.31128C7.24025 6.41144 7.0273 6.50528 6.76427 6.59024C6.50765 6.67328 6.24709 6.71539 5.98983 6.71539C5.73275 6.71539 5.47219 6.67328 5.21538 6.59024C4.95263 6.50537 4.73959 6.41153 4.58267 6.31137C4.40057 6.19501 4.23577 6.08881 4.09286 5.9957C3.86425 5.84674 3.74578 5.79648 3.62329 5.79648C3.31128 5.79648 3.01977 5.8493 2.75674 5.95349C2.49289 6.05795 2.26446 6.20142 2.07779 6.38003C1.89944 6.55069 1.74051 6.75787 1.60538 6.99582C1.4751 7.22516 1.36963 7.46438 1.29199 7.70691C1.21701 7.94137 1.1543 8.19781 1.10559 8.46917C1.05725 8.73815 1.02457 8.99331 1.00836 9.22768C0.992432 9.45684 0.984375 9.69534 0.984375 9.9363C0.984375 10.5627 1.1835 11.0698 1.57617 11.4438C1.96399 11.8129 2.47705 12 3.10116 12H8.87923C9.50316 12 10.0162 11.8129 10.4041 11.4438C10.7969 11.0701 10.996 10.5628 10.996 9.93621C10.9959 9.69442 10.9878 9.45593 10.9718 9.22741ZM9.91926 10.9343C9.66301 11.1782 9.3228 11.2968 8.87914 11.2968H3.10116C2.65741 11.2968 2.3172 11.1782 2.06103 10.9344C1.80972 10.6952 1.68759 10.3686 1.68759 9.9363C1.68759 9.71145 1.69501 9.48943 1.70984 9.2763C1.7243 9.06719 1.75387 8.83749 1.79773 8.59341C1.84103 8.35235 1.89615 8.12612 1.9617 7.92132C2.0246 7.72494 2.11038 7.53048 2.21676 7.34317C2.3183 7.16464 2.43512 7.01147 2.56402 6.88806C2.6846 6.77261 2.83657 6.67813 3.01565 6.60727C3.18127 6.54172 3.3674 6.50583 3.56945 6.50043C3.59408 6.51352 3.63793 6.53851 3.70898 6.58484C3.85354 6.67904 4.02017 6.78653 4.20437 6.90417C4.41201 7.03656 4.67953 7.15613 4.99914 7.25931C5.32589 7.36496 5.65914 7.41861 5.98992 7.41861C6.3207 7.41861 6.65404 7.36496 6.98061 7.2594C7.30049 7.15603 7.56792 7.03656 7.77584 6.90399C7.96434 6.78351 8.1263 6.67914 8.27086 6.58484C8.34191 6.5386 8.38576 6.51352 8.41039 6.50043C8.61253 6.50583 8.79866 6.54172 8.96437 6.60727C9.14336 6.67813 9.29533 6.7727 9.41591 6.88806C9.54481 7.01138 9.66163 7.16455 9.76317 7.34326C9.86964 7.53048 9.95552 7.72503 10.0183 7.92123C10.084 8.12631 10.1392 8.35244 10.1824 8.59332C10.2261 8.83785 10.2558 9.06765 10.2703 9.27639V9.27657C10.2852 9.48888 10.2927 9.71081 10.2928 9.9363C10.2927 10.3687 10.1706 10.6952 9.91926 10.9343Z" fill="white"/>
</svg>
