<svg width="24" height="22" viewBox="0 0 24 22" fill="none" xmlns="http://www.w3.org/2000/svg">
<g clip-path="url(#clip0)">
<path d="M22.9404 2.21483L19.3774 20.1788C19.3774 20.1788 18.8791 21.4246 17.5088 20.8267L9.28677 14.5231L6.29705 13.0781L1.26422 11.3838C1.26422 11.3838 0.491857 11.1098 0.417052 10.5118C0.342246 9.91384 1.28916 9.59 1.28916 9.59L21.2958 1.74169C21.2958 1.74169 22.9403 1.01919 22.9403 2.21514" fill="white"/>
<path d="M8.65431 19.9769C8.65431 19.9769 8.41431 19.9545 8.11509 19.0076C7.81633 18.0608 6.29639 13.0778 6.29639 13.0778L18.3802 5.40408C18.3802 5.40408 19.0779 4.9805 19.053 5.40408C19.053 5.40408 19.1775 5.47888 18.8037 5.82766C18.4301 6.1766 9.31119 14.3735 9.31119 14.3735" fill="#D2E5F1"/>
<path d="M12.4389 16.9404L9.1869 19.9055C9.1869 19.9055 8.93257 20.0984 8.65454 19.9775L9.27729 14.47" fill="#B5CFE4"/>
</g>
<defs>
<clipPath id="clip0">
<rect width="23.3766" height="20.5714" fill="white" transform="translate(0.142822 0.714355)"/>
</clipPath>
</defs>
</svg>
