<svg width="22" height="22" viewBox="0 0 22 22" fill="none" xmlns="http://www.w3.org/2000/svg">
<g clip-path="url(#clip0)">
<path d="M5.27342 13.1459L4.55736 15.8191L1.94016 15.8745C1.15801 14.4237 0.714355 12.7639 0.714355 11.0001C0.714355 9.29446 1.12916 7.68603 1.86443 6.26978H1.86499L4.19502 6.69695L5.21572 9.01301C5.00209 9.63582 4.88565 10.3044 4.88565 11.0001C4.88574 11.7551 5.0225 12.4785 5.27342 13.1459Z" fill="#FBBB00"/>
<path d="M21.1059 9.07861C21.2241 9.70082 21.2857 10.3434 21.2857 11.0001C21.2857 11.7365 21.2082 12.4548 21.0607 13.1477C20.56 15.5055 19.2517 17.5643 17.4393 19.0213L17.4387 19.0207L14.5039 18.871L14.0886 16.2781C15.2912 15.5728 16.231 14.469 16.7261 13.1477H11.2261V9.07861H16.8064H21.1059Z" fill="#518EF8"/>
<path d="M17.4388 19.0207L17.4394 19.0213C15.6767 20.4381 13.4376 21.2858 11.0001 21.2858C7.08304 21.2858 3.67747 19.0964 1.94019 15.8745L5.27344 13.146C6.14206 15.4642 8.37836 17.1145 11.0001 17.1145C12.127 17.1145 13.1827 16.8098 14.0886 16.278L17.4388 19.0207Z" fill="#28B446"/>
<path d="M17.5655 3.08232L14.2334 5.81028C13.2958 5.22424 12.1875 4.88569 11.0001 4.88569C8.31907 4.88569 6.04094 6.61165 5.21584 9.013L1.86506 6.26977H1.8645C3.57635 2.9693 7.02488 0.714355 11.0001 0.714355C13.4958 0.714355 15.7841 1.60335 17.5655 3.08232Z" fill="#F14336"/>
</g>
<defs>
<clipPath id="clip0">
<rect width="20.5714" height="20.5714" fill="white" transform="translate(0.714355 0.714355)"/>
</clipPath>
</defs>
</svg>
