<svg width="24" height="24" viewBox="0 0 24 24" fill="none" xmlns="http://www.w3.org/2000/svg">
<path fill-rule="evenodd" clip-rule="evenodd" d="M0 12C0 5.37258 5.37258 0 12 0C18.6274 0 24 5.37258 24 12C24 18.6274 18.6274 24 12 24C5.37258 24 0 18.6274 0 12ZM18.1325 9.0366C17.9853 8.4711 17.5515 8.02579 17.0008 7.87465C16.0027 7.59999 12 7.59999 12 7.59999C12 7.59999 7.9973 7.59999 6.99912 7.87465C6.44836 8.02579 6.01461 8.4711 5.86741 9.0366C5.59999 10.0615 5.59999 12.2 5.59999 12.2C5.59999 12.2 5.59999 14.3384 5.86741 15.3634C6.01461 15.9289 6.44836 16.3742 6.99912 16.5254C7.9973 16.8 12 16.8 12 16.8C12 16.8 16.0027 16.8 17.0008 16.5254C17.5515 16.3742 17.9853 15.9289 18.1325 15.3634C18.4 14.3384 18.4 12.2 18.4 12.2C18.4 12.2 18.4 10.0615 18.1325 9.0366Z" fill="white"/>
<path fill-rule="evenodd" clip-rule="evenodd" d="M10.8 14.3999V10.3999L14 12.4L10.8 14.3999Z" fill="white"/>
</svg>
