<svg width="24" height="24" viewBox="0 0 24 24" fill="none" xmlns="http://www.w3.org/2000/svg">
<path fill-rule="evenodd" clip-rule="evenodd" d="M0 12C0 5.37258 5.37258 0 12 0C18.6274 0 24 5.37258 24 12C24 18.6274 18.6274 24 12 24C5.37258 24 0 18.6274 0 12ZM12.0006 5.59999C10.2624 5.59999 10.0443 5.60759 9.36163 5.63866C8.68029 5.66986 8.21522 5.77773 7.80828 5.936C7.38734 6.09946 7.03027 6.31813 6.67454 6.674C6.31853 7.02974 6.09986 7.38681 5.93586 7.80761C5.77719 8.21468 5.66919 8.67989 5.63853 9.36096C5.60799 10.0436 5.59999 10.2619 5.59999 12.0001C5.59999 13.7382 5.60773 13.9557 5.63866 14.6383C5.66999 15.3197 5.77786 15.7848 5.936 16.1917C6.0996 16.6126 6.31827 16.9697 6.67414 17.3254C7.02974 17.6814 7.38681 17.9006 7.80748 18.0641C8.21468 18.2224 8.67989 18.3302 9.36109 18.3614C10.0438 18.3925 10.2618 18.4001 11.9998 18.4001C13.7381 18.4001 13.9555 18.3925 14.6382 18.3614C15.3195 18.3302 15.7852 18.2224 16.1924 18.0641C16.6132 17.9006 16.9697 17.6814 17.3253 17.3254C17.6813 16.9697 17.9 16.6126 18.064 16.1918C18.2213 15.7848 18.3293 15.3195 18.3613 14.6385C18.392 13.9558 18.4 13.7382 18.4 12.0001C18.4 10.2619 18.392 10.0438 18.3613 9.36109C18.3293 8.67976 18.2213 8.21468 18.064 7.80775C17.9 7.38681 17.6813 7.02974 17.3253 6.674C16.9693 6.318 16.6133 6.09933 16.192 5.936C15.784 5.77773 15.3186 5.66986 14.6373 5.63866C13.9546 5.60759 13.7373 5.59999 11.9986 5.59999H12.0006Z" fill="white"/>
<path fill-rule="evenodd" clip-rule="evenodd" d="M11.4264 6.75334C11.5968 6.75307 11.787 6.75334 12.0006 6.75334C13.7094 6.75334 13.9119 6.75947 14.5867 6.79014C15.2107 6.81867 15.5494 6.92294 15.775 7.01054C16.0737 7.12654 16.2866 7.26521 16.5105 7.48921C16.7345 7.71321 16.8732 7.92655 16.9894 8.22522C17.077 8.45055 17.1814 8.78922 17.2098 9.41323C17.2405 10.0879 17.2472 10.2906 17.2472 11.9986C17.2472 13.7066 17.2405 13.9093 17.2098 14.5839C17.1813 15.2079 17.077 15.5466 16.9894 15.772C16.8734 16.0706 16.7345 16.2833 16.5105 16.5072C16.2865 16.7312 16.0738 16.8698 15.775 16.9858C15.5497 17.0738 15.2107 17.1778 14.5867 17.2064C13.9121 17.237 13.7094 17.2437 12.0006 17.2437C10.2916 17.2437 10.0891 17.237 9.41443 17.2064C8.79042 17.1776 8.45175 17.0733 8.22602 16.9857C7.92735 16.8697 7.71401 16.731 7.49001 16.507C7.26601 16.283 7.12734 16.0702 7.01107 15.7714C6.92347 15.5461 6.81907 15.2074 6.79067 14.5834C6.76 13.9087 6.75387 13.7061 6.75387 11.997C6.75387 10.2879 6.76 10.0863 6.79067 9.41163C6.8192 8.78762 6.92347 8.44895 7.01107 8.22335C7.12707 7.92468 7.26601 7.71135 7.49001 7.48734C7.71401 7.26334 7.92735 7.12467 8.22602 7.00841C8.45162 6.92041 8.79042 6.8164 9.41443 6.78774C10.0048 6.76107 10.2336 6.75307 11.4264 6.75174V6.75334ZM15.4169 7.81601C14.9929 7.81601 14.6489 8.15962 14.6489 8.58375C14.6489 9.00776 14.9929 9.35176 15.4169 9.35176C15.8409 9.35176 16.1849 9.00776 16.1849 8.58375C16.1849 8.15975 15.8409 7.81601 15.4169 7.81601ZM12.0006 8.71336C10.1855 8.71336 8.71389 10.185 8.71389 12.0001C8.71389 13.8151 10.1855 15.2861 12.0006 15.2861C13.8157 15.2861 15.2867 13.8151 15.2867 12.0001C15.2867 10.185 13.8157 8.71336 12.0006 8.71336Z" fill="white"/>
<path fill-rule="evenodd" clip-rule="evenodd" d="M12.0006 9.8667C13.1787 9.8667 14.1339 10.8218 14.1339 12.0001C14.1339 13.1782 13.1787 14.1334 12.0006 14.1334C10.8223 14.1334 9.86723 13.1782 9.86723 12.0001C9.86723 10.8218 10.8223 9.8667 12.0006 9.8667Z" fill="white"/>
</svg>
